HIERARCHY
ROOT Hips
{
	OFFSET 0.00000 0.00000 0.00000
	CHANNELS 6 Xposition Yposition Zposition Zrotation Yrotation Xrotation 
	JOINT LHipJoint
	{
		OFFSET 0 0 0
		CHANNELS 3 Zrotation Yrotation Xrotation
		JOINT LeftUpLeg
		{
			OFFSET 1.84395 -1.68683 0.74144
			CHANNELS 3 Zrotation Yrotation Xrotation
			JOINT LeftLeg
			{
				OFFSET 2.27037 -6.23779 0.00000
				CHANNELS 3 Zrotation Yrotation Xrotation
				JOINT LeftFoot
				{
					OFFSET 2.56918 -7.05877 0.00000
					CHANNELS 3 Zrotation Yrotation Xrotation
					JOINT LeftToeBase
					{
						OFFSET 0.22276 -0.61202 1.71784
						CHANNELS 3 Zrotation Yrotation Xrotation
						End Site
						{
							OFFSET 0.00000 -0.00000 0.91613
						}
					}
				}
			}
		}
	}
	JOINT RHipJoint
	{
		OFFSET 0 0 0
		CHANNELS 3 Zrotation Yrotation Xrotation
		JOINT RightUpLeg
		{
			OFFSET -1.76833 -1.68684 0.74144
			CHANNELS 3 Zrotation Yrotation Xrotation
			JOINT RightLeg
			{
				OFFSET -2.49360 -6.85110 0.00000
				CHANNELS 3 Zrotation Yrotation Xrotation
				JOINT RightFoot
				{
					OFFSET -2.55538 -7.02085 0.00000
					CHANNELS 3 Zrotation Yrotation Xrotation
					JOINT RightToeBase
					{
						OFFSET -0.21516 -0.59115 1.68050
						CHANNELS 3 Zrotation Yrotation Xrotation
						End Site
						{
							OFFSET -0.00000 -0.00000 0.89604
						}
					}
				}
			}
		}
	}
	JOINT LowerBack
	{
		OFFSET 0 0 0
		CHANNELS 3 Zrotation Yrotation Xrotation
		JOINT Spine
		{
			OFFSET 0.06382 1.72312 -0.19613
			CHANNELS 3 Zrotation Yrotation Xrotation
			JOINT Spine1
			{
				OFFSET -0.00055 1.73507 0.23859
				CHANNELS 3 Zrotation Yrotation Xrotation
				JOINT Neck
				{
					OFFSET 0 0 0
					CHANNELS 3 Zrotation Yrotation Xrotation
					JOINT Neck1
					{
						OFFSET 0.03638 1.65562 0.09633
						CHANNELS 3 Zrotation Yrotation Xrotation
						JOINT Head
						{
							OFFSET 0.06388 1.62807 -0.32386
							CHANNELS 3 Zrotation Yrotation Xrotation
							End Site
							{
								OFFSET 0.00995 1.67644 -0.12021
							}
						}
					}
				}
				JOINT LeftShoulder
				{
					OFFSET 0 0 0
					CHANNELS 3 Zrotation Yrotation Xrotation
					JOINT LeftArm
					{
						OFFSET 3.09648 1.42991 0.28122
						CHANNELS 3 Zrotation Yrotation Xrotation
						JOINT LeftForeArm
						{
							OFFSET 5.11878 -0.00000 -0.00000
							CHANNELS 3 Zrotation Yrotation Xrotation
							JOINT LeftHand
							{
								OFFSET 3.59971 -0.00000 0.00000
								CHANNELS 3 Zrotation Yrotation Xrotation
								JOINT LeftFingerBase
								{
									OFFSET 0 0 0
									CHANNELS 3 Zrotation Yrotation Xrotation
									JOINT LeftHandIndex1
									{
										OFFSET 0.62877 -0.00000 0.00000
										CHANNELS 3 Zrotation Yrotation Xrotation
										End Site
										{
											OFFSET 0.50693 -0.00000 0.00000
										}
									}
								}
								JOINT LThumb
								{
									OFFSET 0 0 0
									CHANNELS 3 Zrotation Yrotation Xrotation
									End Site
									{
										OFFSET 0.51467 -0.00000 0.51467
									}
								}
							}
						}
					}
				}
				JOINT RightShoulder
				{
					OFFSET 0 0 0
					CHANNELS 3 Zrotation Yrotation Xrotation
					JOINT RightArm
					{
						OFFSET -3.33565 1.14597 0.05047
						CHANNELS 3 Zrotation Yrotation Xrotation
						JOINT RightForeArm
						{
							OFFSET -5.49020 -0.00000 0.00000
							CHANNELS 3 Zrotation Yrotation Xrotation
							JOINT RightHand
							{
								OFFSET -3.20659 -0.00000 -0.00000
								CHANNELS 3 Zrotation Yrotation Xrotation
								JOINT RightFingerBase
								{
									OFFSET 0 0 0
									CHANNELS 3 Zrotation Yrotation Xrotation
									JOINT RightHandIndex1
									{
										OFFSET -0.69188 -0.00000 0.00000
										CHANNELS 3 Zrotation Yrotation Xrotation
										End Site
										{
											OFFSET -0.55781 -0.00000 0.00000
										}
									}
								}
								JOINT RThumb
								{
									OFFSET 0 0 0
									CHANNELS 3 Zrotation Yrotation Xrotation
									End Site
									{
										OFFSET -0.56633 -0.00000 0.56633
									}
								}
							}
						}
					}
				}
			}
		}
	}
}
MOTION
Frames: 14
Frame Time: .0083333
0.0226 17.4819 9.5418 -3.6811 38.8203 9.9326 0.0000 0.0000 0.0000 -11.2681 -38.3745 5.5983 0.0284 -1.0876 -2.9898 -0.8101 15.8435 -8.2290 1.0445 -6.4993 -18.2403 0.0000 0.0000 0.0000 32.5768 21.1020 17.3688 -0.0067 0.5281 -1.4510 -6.3418 -33.4578 -64.1212 -4.5059 -12.8048 38.6420 11.5474 5.3465 -4.2008 1.0481 8.5635 -16.6404 -5.8188 2.9467 -14.9740 2.9528 2.0189 -0.9597 9.7239 6.8924 -30.9750 2.3431 2.2494 -9.9977 0.0000 0.0000 0.0000 -91.4557 26.9647 11.8668 12.5531 -20.6289 -2.2934 -0.0000 -0.0000 20.8254 14.7025 -18.3919 -4.7326 -7.1250 0.0000 -0.0000 -8.7549 11.1792 6.9755 0.0000 0.0000 0.0000 89.2419 -25.9715 12.8142 -18.2615 28.4907 -4.6733 0.0000 0.0000 25.0491 6.2838 -24.2319 -2.5877 7.1250 -0.0000 -0.0000 35.1401 -50.6605 -5.4906
0.0162 17.4793 9.5501 -3.5984 38.7784 9.8721 0.0000 0.0000 0.0000 -11.4111 -38.2640 5.7768 0.0293 -1.1045 -3.0363 -0.8076 15.8154 -8.1812 1.0712 -6.5794 -18.4751 0.0000 0.0000 0.0000 32.6241 21.1076 17.5310 -0.0064 0.5148 -1.4146 -6.3589 -33.4285 -64.1406 -4.5317 -12.8362 38.7583 11.6029 5.3611 -4.3465 1.0655 8.5620 -16.6311 -5.8098 2.9496 -14.8686 3.2918 2.1611 -0.8737 9.5562 7.0640 -30.8742 2.2067 2.3061 -9.9713 0.0000 -0.0000 0.0000 -91.4365 27.2352 11.6918 12.5845 -20.6754 -2.3045 -0.0000 -0.0000 20.6913 14.5231 -18.3512 -4.6626 -7.1250 0.0000 -0.0000 -8.8711 11.2389 7.0593 0.0000 -0.0000 0.0000 89.2180 -26.1487 13.0832 -18.3080 28.5497 -4.6955 0.0000 0.0000 25.1822 6.4251 -24.3850 -2.6619 7.1250 -0.0000 -0.0000 35.3658 -50.7647 -5.6336
0.0102 17.4764 9.5601 -3.4794 38.7820 9.8339 0.0000 0.0000 0.0000 -11.6002 -38.2204 5.9815 0.0301 -1.1191 -3.0766 -0.8049 15.7914 -8.1814 1.1022 -6.6709 -18.7441 0.0000 0.0000 0.0000 32.6809 21.1510 17.7506 -0.0063 0.5120 -1.4068 -6.4701 -33.3784 -64.3592 -4.5676 -12.8797 38.9197 11.6415 5.4684 -4.5254 1.0396 8.6665 -16.5686 -5.8343 3.0127 -14.6459 2.9480 2.0134 -1.0126 9.7675 6.8846 -30.8975 2.3596 2.2476 -9.9598 0.0000 0.0000 0.0000 -91.3788 27.2389 11.6672 12.5461 -20.6186 -2.2910 -0.0000 -0.0000 20.9341 14.4275 -18.3323 -4.6262 -7.1250 0.0000 -0.0000 -8.9331 11.2680 7.1045 0.0000 0.0000 0.0000 89.2950 -26.2547 12.8866 -18.3955 28.6606 -4.7374 0.0000 0.0000 25.4362 6.5722 -24.5446 -2.7401 7.1250 -0.0000 -0.0000 35.6019 -50.8731 -5.7841
0.0036 17.4734 9.5713 -3.3356 38.7941 9.8713 0.0000 0.0000 0.0000 -11.7569 -38.2500 6.1006 0.0302 -1.1209 -3.0816 -0.8052 15.7995 -8.2265 1.1142 -6.7059 -18.8469 0.0000 0.0000 0.0000 32.6698 21.1897 17.8805 -0.0063 0.5126 -1.4086 -6.5620 -33.3526 -64.5493 -4.5893 -12.9058 39.0169 11.6008 5.5298 -4.8018 1.0129 8.6962 -16.5423 -5.8061 3.0499 -14.4310 4.9897 2.8304 -1.0578 8.2434 7.7094 -30.4393 1.3947 2.5661 -9.7040 0.0000 0.0000 0.0000 -91.2396 27.3106 11.7367 12.5304 -20.5952 -2.2854 -0.0000 -0.0000 21.1194 14.5491 -18.3321 -4.6667 -7.1250 0.0000 -0.0000 -8.8536 11.2555 7.0420 0.0000 0.0000 0.0000 89.3824 -26.2003 12.7362 -18.3344 28.5832 -4.7081 0.0000 0.0000 25.7326 6.5665 -24.5130 -2.7344 7.1250 -0.0000 -0.0000 35.5757 -50.8478 -5.7547
-0.0034 17.4713 9.5822 -3.1485 38.8136 9.9654 0.0000 0.0000 0.0000 -11.8428 -38.0421 5.9826 0.0293 -1.1054 -3.0389 -0.7766 15.5394 -8.1864 1.1182 -6.7176 -18.8812 0.0000 0.0000 0.0000 32.5460 21.1415 17.8892 -0.0063 0.5113 -1.4050 -6.5408 -33.3945 -64.5287 -4.5788 -12.8931 38.9697 11.5130 5.5321 -5.1090 1.0138 8.6448 -16.5269 -5.7181 3.0544 -14.2360 3.5133 2.0970 -0.9536 9.4730 6.9776 -30.8929 2.1467 2.2541 -9.9526 -0.0000 -0.0000 0.0000 -91.1064 27.4595 11.8883 12.5561 -20.6334 -2.2945 -0.0000 -0.0000 21.0418 15.0399 -17.5188 -4.6242 -7.1250 0.0000 -0.0000 -8.5121 12.0298 6.6264 -0.0000 -0.0000 0.0000 89.4075 -26.0826 12.7017 -18.2292 28.4496 -4.6579 0.0000 0.0000 25.9664 6.3606 -24.3439 -2.6309 7.1250 -0.0000 -0.0000 35.2818 -50.7410 -5.5945
-0.0109 17.4695 9.5939 -3.0045 38.8822 10.0078 0.0000 0.0000 0.0000 -11.8797 -37.7653 5.8571 0.0290 -1.0986 -3.0201 -0.7391 15.1851 -8.0906 1.1149 -6.7079 -18.8528 0.0000 0.0000 0.0000 32.5040 21.0950 17.9422 -0.0061 0.5059 -1.3903 -6.5478 -33.4442 -64.5761 -4.5667 -12.8786 38.9156 11.3464 5.4267 -5.4546 1.1342 8.4516 -16.4938 -5.4496 3.0099 -14.0480 3.9723 2.2973 -0.5890 9.0783 7.2354 -31.0491 1.9007 2.3356 -10.0667 0.0000 -0.0000 0.0000 -91.1655 27.6532 11.6403 12.6138 -20.7187 -2.3149 -0.0000 -0.0000 21.0064 15.5930 -16.0417 -4.4098 -7.1250 0.0000 -0.0000 -8.1138 13.4789 6.0615 0.0000 -0.0000 0.0000 89.2516 -26.0254 12.9316 -18.1888 28.3982 -4.6387 0.0000 0.0000 26.0258 6.1895 -24.2666 -2.5520 7.1250 -0.0000 -0.0000 35.0803 -50.7044 -5.5204
-0.0180 17.4659 9.6076 -2.9332 38.9791 9.9894 0.0000 0.0000 0.0000 -11.8860 -37.5707 5.8441 0.0299 -1.1157 -3.0671 -0.7134 14.9349 -8.0092 1.1176 -6.7158 -18.8762 0.0000 0.0000 0.0000 32.5793 21.0847 18.0559 -0.0059 0.4944 -1.3585 -6.6434 -33.4250 -64.7779 -4.5669 -12.8788 38.9164 11.0031 5.1497 -5.9140 1.4779 8.0269 -16.4315 -4.8259 2.8961 -13.8412 4.0569 2.5769 0.1078 8.9670 7.6805 -31.2757 1.7989 2.4975 -10.2971 -0.0000 -0.0000 0.0000 -91.6211 27.8585 10.6914 12.6855 -20.8246 -2.3403 -0.0000 -0.0000 21.0349 15.4225 -16.2451 -4.4130 -7.1250 0.0000 -0.0000 -8.2315 13.2877 6.1847 -0.0000 -0.0000 0.0000 88.6857 -26.0434 13.9444 -18.1896 28.3993 -4.6391 0.0000 0.0000 25.7659 6.1601 -24.3011 -2.5432 7.1250 -0.0000 -0.0000 35.0775 -50.7379 -5.5513
-0.0234 17.4620 9.6215 -2.8440 39.0907 10.0059 0.0000 0.0000 0.0000 -11.9455 -37.5280 5.8821 0.0302 -1.1218 -3.0840 -0.7014 14.8263 -8.0408 1.1116 -6.6982 -18.8243 0.0000 0.0000 0.0000 32.6334 21.0925 18.1533 -0.0057 0.4856 -1.3344 -6.7696 -33.3864 -65.0346 -4.5990 -12.9175 39.0604 11.3679 5.3678 -5.9526 1.1429 8.3020 -16.5215 -5.3925 2.9576 -13.8035 4.3526 2.3543 -0.2944 8.9120 7.3254 -31.0641 1.7625 2.3375 -10.1175 0.0000 0.0000 0.0000 -90.8897 27.9256 11.3411 12.6709 -20.8031 -2.3351 -0.0000 -0.0000 20.9449 14.4804 -17.7803 -4.5091 -7.1250 0.0000 -0.0000 -8.8860 11.8211 6.9636 0.0000 0.0000 0.0000 89.3104 -26.2059 13.2950 -18.2550 28.4824 -4.6702 0.0000 0.0000 25.6629 6.1710 -24.2614 -2.5439 7.1250 -0.0000 -0.0000 35.0607 -50.7031 -5.5153
-0.0274 17.4612 9.6346 -2.6620 39.2276 10.0955 0.0000 0.0000 0.0000 -12.1224 -37.5950 5.9270 0.0292 -1.1028 -3.0318 -0.6932 14.7569 -8.0967 1.0891 -6.6324 -18.6309 0.0000 0.0000 0.0000 32.6102 21.1139 18.2565 -0.0058 0.4898 -1.3459 -6.8906 -33.4095 -65.3173 -4.6379 -12.9640 39.2340 11.4058 5.4130 -6.2071 1.0426 8.3180 -16.5437 -5.4946 2.9654 -13.6534 4.2537 2.2404 -0.5814 9.1107 7.1440 -30.7764 1.8670 2.2701 -9.9574 0.0000 0.0000 0.0000 -90.6716 27.9662 11.2505 12.6901 -20.8315 -2.3419 -0.0000 -0.0000 21.0340 14.2626 -17.5730 -4.3888 -7.1250 0.0000 -0.0000 -9.0252 12.0523 7.0317 0.0000 0.0000 0.0000 89.4657 -26.2314 13.2127 -18.2529 28.4797 -4.6692 0.0000 0.0000 25.6021 6.1783 -24.2646 -2.5472 7.1250 -0.0000 -0.0000 35.0692 -50.7046 -5.5184
-0.0305 17.4615 9.6486 -2.4313 39.3587 10.1868 0.0000 0.0000 0.0000 -12.3700 -37.5478 5.9773 0.0286 -1.0925 -3.0033 -0.6803 14.6185 -7.9895 1.0997 -6.6634 -18.7221 0.0000 0.0000 0.0000 32.5597 21.1184 18.4186 -0.0061 0.5035 -1.3836 -7.0279 -33.3993 -65.6137 -4.6614 -12.9921 39.3388 11.2851 5.3677 -6.5382 1.0217 8.2023 -16.5451 -5.4146 2.9377 -13.4789 4.3246 2.2845 -0.5332 9.1462 7.1910 -30.5851 1.8602 2.2856 -9.8960 0.0000 0.0000 0.0000 -90.6105 28.0446 10.8747 12.7316 -20.8927 -2.3567 -0.0000 -0.0000 21.0526 15.9906 -15.2130 -4.3004 -7.1250 0.0000 -0.0000 -7.8322 14.2885 5.7115 0.0000 0.0000 0.0000 89.3947 -26.3072 13.7494 -18.2711 28.5029 -4.6779 0.0000 0.0000 25.3787 6.1196 -24.3623 -2.5324 7.1250 -0.0000 -0.0000 35.0827 -50.7953 -5.6064
-0.0333 17.4593 9.6630 -2.2542 39.4563 10.2501 0.0000 0.0000 0.0000 -12.5521 -37.4102 6.0069 0.0291 -1.1003 -3.0247 -0.6688 14.4842 -7.8283 1.1180 -6.7169 -18.8792 0.0000 0.0000 0.0000 32.5401 21.1176 18.5726 -0.0064 0.5159 -1.4175 -7.1649 -33.3296 -65.8722 -4.7141 -13.0544 39.5723 11.1837 5.2950 -6.8802 1.0019 8.0552 -16.5846 -5.3463 2.8881 -13.3518 4.6266 2.3716 -0.0811 9.0575 7.3470 -30.5850 1.7550 2.3142 -9.9781 -0.0000 -0.0000 0.0000 -90.4799 28.2471 10.5677 12.7934 -20.9837 -2.3788 -0.0000 -0.0000 20.7691 14.3206 -18.3997 -4.6068 -7.1250 0.0000 -0.0000 -9.0045 11.2107 7.1735 -0.0000 -0.0000 0.0000 89.3812 -26.4923 14.3615 -18.3031 28.5435 -4.6932 0.0000 0.0000 25.3650 5.9959 -24.3631 -2.4809 7.1250 -0.0000 -0.0000 34.9744 -50.8159 -5.6042
-0.0373 17.4562 9.6770 -1.9795 39.4849 10.4188 0.0000 0.0000 0.0000 -12.8145 -37.4305 6.0868 0.0297 -1.1118 -3.0564 -0.6721 14.5134 -7.8055 1.0995 -6.6628 -18.7203 0.0000 0.0000 0.0000 32.3809 21.1137 18.6390 -0.0066 0.5240 -1.4399 -7.2015 -33.3666 -65.9745 -4.7587 -13.1068 39.7696 11.0079 5.3138 -7.2428 0.9564 8.0191 -16.5806 -5.2612 2.9065 -13.1386 5.2611 2.5692 0.2250 8.5844 7.5651 -30.5131 1.4524 2.3815 -9.9809 -0.0000 0.0000 0.0000 -90.3795 28.2907 10.4031 12.8585 -21.0795 -2.4021 -0.0000 -0.0000 20.4713 14.4375 -18.5897 -4.6920 -7.1250 0.0000 -0.0000 -8.9328 11.0066 7.1527 -0.0000 0.0000 0.0000 89.3996 -26.5419 14.5607 -18.3234 28.5693 -4.7029 0.0000 0.0000 25.5871 5.9809 -24.3200 -2.4706 7.1250 -0.0000 -0.0000 34.9327 -50.7826 -5.5648
-0.0414 17.4537 9.6902 -1.6247 39.4866 10.6397 0.0000 0.0000 0.0000 -13.2010 -37.6193 6.2811 0.0303 -1.1241 -3.0905 -0.6905 14.6908 -7.8098 1.1084 -6.6891 -18.7975 0.0000 0.0000 0.0000 32.1053 21.0613 18.6318 -0.0064 0.5147 -1.4144 -7.1910 -33.4133 -65.9795 -4.7499 -13.0965 39.7309 10.7800 5.3376 -7.6119 0.8815 7.9873 -16.5801 -5.1802 2.9304 -12.9252 5.1727 2.5118 0.4098 8.7760 7.5254 -30.4014 1.5338 2.3526 -9.9836 0.0000 -0.0000 0.0000 -90.2851 28.3260 10.1611 12.9318 -21.1871 -2.4286 -0.0000 -0.0000 20.2865 15.7934 -16.5536 -4.6073 -7.1250 0.0000 -0.0000 -7.9907 12.9371 6.0594 0.0000 -0.0000 0.0000 89.4336 -26.6059 14.7883 -18.3483 28.6008 -4.7148 0.0000 0.0000 25.6657 6.1222 -24.3037 -2.5277 7.1250 -0.0000 -0.0000 35.0460 -50.7462 -5.5529
-0.0447 17.4513 9.7011 -1.4366 39.5497 10.6835 0.0000 0.0000 0.0000 -13.4455 -37.6342 6.4214 0.0302 -1.1224 -3.0857 -0.6894 14.6626 -7.6695 1.1629 -6.8458 -19.2593 0.0000 0.0000 0.0000 32.0058 20.9649 18.6702 -0.0058 0.4901 -1.3467 -7.2374 -33.3508 -66.0435 -4.7541 -13.1014 39.7492 10.7395 5.3463 -7.8683 0.8316 7.9559 -16.5747 -5.1842 2.9286 -12.7648 5.4964 2.5493 0.6938 8.5675 7.5568 -30.3030 1.3946 2.3451 -9.9842 -0.0000 -0.0000 0.0000 -90.1799 28.3874 9.8899 12.9841 -21.2638 -2.4475 -0.0000 -0.0000 20.2245 16.5960 -15.5753 -4.5753 -7.1250 0.0000 -0.0000 -7.4314 13.8601 5.4820 -0.0000 -0.0000 0.0000 89.4493 -26.6624 15.1448 -18.3756 28.6354 -4.7279 0.0000 0.0000 25.5310 6.2132 -24.3019 -2.5653 7.1250 -0.0000 -0.0000 35.1246 -50.7300 -5.5531
